STARTFONT 2.1
COMMENT
COMMENT Converted from OpenType font "Aldrich-Regular.ttf" by "otf2bdf 3.0".
COMMENT
FONT -FreeType-Aldrich-Medium-R-Normal--11-110-72-72-P-55-ISO10646-1
SIZE 11 72 72
FONTBOUNDINGBOX 13 14 -1 -4
STARTPROPERTIES 19
FOUNDRY "FreeType"
FAMILY_NAME "Aldrich"
WEIGHT_NAME "Medium"
SLANT "R"
SETWIDTH_NAME "Normal"
ADD_STYLE_NAME ""
PIXEL_SIZE 11
POINT_SIZE 110
RESOLUTION_X 72
RESOLUTION_Y 72
SPACING "P"
AVERAGE_WIDTH 55
CHARSET_REGISTRY "ISO10646"
CHARSET_ENCODING "1"
FONT_ASCENT 7
FONT_DESCENT 2
COPYRIGHT "Copyright (c) Matthew Desmond, 2011. All rights reserved."
_OTF_FONTFILE "Aldrich-Regular.ttf"
_OTF_PSNAME "Aldrich-Regular"
ENDPROPERTIES
CHARS 248
STARTCHAR 0020
ENCODING 32
SWIDTH 272 0
DWIDTH 3 0
BBX 0 0 0 0
BITMAP
ENDCHAR
STARTCHAR 0021
ENCODING 33
SWIDTH 272 0
DWIDTH 3 0
BBX 1 8 1 0
BITMAP
80
80
80
80
80
00
80
80
ENDCHAR
STARTCHAR 0022
ENCODING 34
SWIDTH 454 0
DWIDTH 5 0
BBX 4 4 1 4
BITMAP
B0
A0
A0
A0
ENDCHAR
STARTCHAR 0023
ENCODING 35
SWIDTH 727 0
DWIDTH 8 0
BBX 6 8 1 0
BITMAP
24
24
FC
48
48
FC
48
48
ENDCHAR
STARTCHAR 0024
ENCODING 36
SWIDTH 727 0
DWIDTH 8 0
BBX 6 10 1 -1
BITMAP
20
FC
A4
A0
A0
FC
24
A4
FC
20
ENDCHAR
STARTCHAR 0025
ENCODING 37
SWIDTH 1000 0
DWIDTH 11 0
BBX 9 8 1 0
BITMAP
E300
A600
A400
E800
1380
1480
2480
4380
ENDCHAR
STARTCHAR 0026
ENCODING 38
SWIDTH 727 0
DWIDTH 8 0
BBX 7 8 1 0
BITMAP
F8
88
80
80
7E
88
88
FE
ENDCHAR
STARTCHAR 0027
ENCODING 39
SWIDTH 272 0
DWIDTH 3 0
BBX 1 4 1 4
BITMAP
80
80
80
80
ENDCHAR
STARTCHAR 0028
ENCODING 40
SWIDTH 363 0
DWIDTH 4 0
BBX 3 10 1 -2
BITMAP
60
80
80
80
80
80
80
80
80
60
ENDCHAR
STARTCHAR 0029
ENCODING 41
SWIDTH 363 0
DWIDTH 4 0
BBX 3 10 1 -2
BITMAP
C0
40
40
60
60
60
60
40
40
C0
ENDCHAR
STARTCHAR 002A
ENCODING 42
SWIDTH 545 0
DWIDTH 6 0
BBX 4 5 1 3
BITMAP
40
D0
F0
60
90
ENDCHAR
STARTCHAR 002B
ENCODING 43
SWIDTH 727 0
DWIDTH 8 0
BBX 6 6 1 0
BITMAP
20
20
FC
20
20
20
ENDCHAR
STARTCHAR 002C
ENCODING 44
SWIDTH 272 0
DWIDTH 3 0
BBX 1 4 1 -2
BITMAP
80
80
80
80
ENDCHAR
STARTCHAR 002D
ENCODING 45
SWIDTH 363 0
DWIDTH 4 0
BBX 2 1 1 3
BITMAP
C0
ENDCHAR
STARTCHAR 002E
ENCODING 46
SWIDTH 272 0
DWIDTH 3 0
BBX 1 2 1 0
BITMAP
80
80
ENDCHAR
STARTCHAR 002F
ENCODING 47
SWIDTH 454 0
DWIDTH 5 0
BBX 4 9 0 -1
BITMAP
10
10
10
20
20
20
40
40
C0
ENDCHAR
STARTCHAR 0030
ENCODING 48
SWIDTH 727 0
DWIDTH 8 0
BBX 6 8 1 0
BITMAP
FC
84
84
84
84
84
84
FC
ENDCHAR
STARTCHAR 0031
ENCODING 49
SWIDTH 363 0
DWIDTH 4 0
BBX 3 8 0 0
BITMAP
E0
20
20
20
20
20
20
20
ENDCHAR
STARTCHAR 0032
ENCODING 50
SWIDTH 727 0
DWIDTH 8 0
BBX 6 8 1 0
BITMAP
F8
8C
0C
18
70
C0
84
FC
ENDCHAR
STARTCHAR 0033
ENCODING 51
SWIDTH 636 0
DWIDTH 7 0
BBX 6 8 1 0
BITMAP
F8
88
08
08
78
0C
8C
F8
ENDCHAR
STARTCHAR 0034
ENCODING 52
SWIDTH 636 0
DWIDTH 7 0
BBX 6 8 0 0
BITMAP
08
18
28
68
48
FC
08
08
ENDCHAR
STARTCHAR 0035
ENCODING 53
SWIDTH 636 0
DWIDTH 7 0
BBX 5 8 1 0
BITMAP
F8
80
80
F8
08
08
88
F8
ENDCHAR
STARTCHAR 0036
ENCODING 54
SWIDTH 727 0
DWIDTH 8 0
BBX 6 8 1 0
BITMAP
FC
84
80
80
FC
84
84
FC
ENDCHAR
STARTCHAR 0037
ENCODING 55
SWIDTH 545 0
DWIDTH 6 0
BBX 6 8 0 0
BITMAP
FC
04
08
08
10
10
20
60
ENDCHAR
STARTCHAR 0038
ENCODING 56
SWIDTH 727 0
DWIDTH 8 0
BBX 6 8 1 0
BITMAP
F8
84
84
84
78
84
84
F8
ENDCHAR
STARTCHAR 0039
ENCODING 57
SWIDTH 727 0
DWIDTH 8 0
BBX 6 8 1 0
BITMAP
FC
84
84
84
FC
04
84
FC
ENDCHAR
STARTCHAR 003A
ENCODING 58
SWIDTH 272 0
DWIDTH 3 0
BBX 1 6 1 0
BITMAP
80
80
00
00
80
80
ENDCHAR
STARTCHAR 003B
ENCODING 59
SWIDTH 272 0
DWIDTH 3 0
BBX 1 8 1 -2
BITMAP
80
80
00
00
80
80
80
80
ENDCHAR
STARTCHAR 003C
ENCODING 60
SWIDTH 636 0
DWIDTH 7 0
BBX 6 6 0 0
BITMAP
04
18
E0
E0
18
04
ENDCHAR
STARTCHAR 003D
ENCODING 61
SWIDTH 727 0
DWIDTH 8 0
BBX 6 4 1 1
BITMAP
FC
00
00
FC
ENDCHAR
STARTCHAR 003E
ENCODING 62
SWIDTH 636 0
DWIDTH 7 0
BBX 6 6 1 0
BITMAP
80
70
1C
1C
70
80
ENDCHAR
STARTCHAR 003F
ENCODING 63
SWIDTH 545 0
DWIDTH 6 0
BBX 5 8 1 0
BITMAP
F0
98
10
60
40
00
60
60
ENDCHAR
STARTCHAR 0040
ENCODING 64
SWIDTH 1090 0
DWIDTH 12 0
BBX 10 10 1 -2
BITMAP
7F80
8080
8040
9E40
B240
B240
B240
9F80
8000
7F00
ENDCHAR
STARTCHAR 0041
ENCODING 65
SWIDTH 727 0
DWIDTH 8 0
BBX 7 8 0 0
BITMAP
18
18
28
24
24
7C
42
C2
ENDCHAR
STARTCHAR 0042
ENCODING 66
SWIDTH 727 0
DWIDTH 8 0
BBX 6 8 1 0
BITMAP
F8
84
84
84
F8
84
84
FC
ENDCHAR
STARTCHAR 0043
ENCODING 67
SWIDTH 727 0
DWIDTH 8 0
BBX 6 8 1 0
BITMAP
FC
84
80
80
80
80
84
FC
ENDCHAR
STARTCHAR 0044
ENCODING 68
SWIDTH 727 0
DWIDTH 8 0
BBX 7 8 1 0
BITMAP
FC
84
86
86
86
86
84
FC
ENDCHAR
STARTCHAR 0045
ENCODING 69
SWIDTH 636 0
DWIDTH 7 0
BBX 6 8 1 0
BITMAP
FC
80
80
80
F8
80
80
FC
ENDCHAR
STARTCHAR 0046
ENCODING 70
SWIDTH 636 0
DWIDTH 7 0
BBX 6 8 1 0
BITMAP
FC
80
80
80
F8
80
80
80
ENDCHAR
STARTCHAR 0047
ENCODING 71
SWIDTH 727 0
DWIDTH 8 0
BBX 6 8 1 0
BITMAP
FC
84
80
80
9C
84
84
FC
ENDCHAR
STARTCHAR 0048
ENCODING 72
SWIDTH 818 0
DWIDTH 9 0
BBX 7 8 1 0
BITMAP
86
86
86
86
FE
86
86
86
ENDCHAR
STARTCHAR 0049
ENCODING 73
SWIDTH 272 0
DWIDTH 3 0
BBX 1 8 1 0
BITMAP
80
80
80
80
80
80
80
80
ENDCHAR
STARTCHAR 004A
ENCODING 74
SWIDTH 636 0
DWIDTH 7 0
BBX 5 8 1 0
BITMAP
08
08
08
08
08
08
88
F8
ENDCHAR
STARTCHAR 004B
ENCODING 75
SWIDTH 727 0
DWIDTH 8 0
BBX 6 8 1 0
BITMAP
8C
98
B0
E0
E0
B0
98
8C
ENDCHAR
STARTCHAR 004C
ENCODING 76
SWIDTH 545 0
DWIDTH 6 0
BBX 5 8 1 0
BITMAP
80
80
80
80
80
80
80
F8
ENDCHAR
STARTCHAR 004D
ENCODING 77
SWIDTH 909 0
DWIDTH 10 0
BBX 8 8 1 0
BITMAP
81
C3
C3
A7
A5
9D
99
89
ENDCHAR
STARTCHAR 004E
ENCODING 78
SWIDTH 818 0
DWIDTH 9 0
BBX 7 8 1 0
BITMAP
82
C2
A2
B2
92
8A
86
86
ENDCHAR
STARTCHAR 004F
ENCODING 79
SWIDTH 818 0
DWIDTH 9 0
BBX 7 8 1 0
BITMAP
FC
86
86
86
86
86
86
FC
ENDCHAR
STARTCHAR 0050
ENCODING 80
SWIDTH 727 0
DWIDTH 8 0
BBX 6 8 1 0
BITMAP
FC
84
84
84
FC
80
80
80
ENDCHAR
STARTCHAR 0051
ENCODING 81
SWIDTH 818 0
DWIDTH 9 0
BBX 7 9 1 -1
BITMAP
FC
86
86
86
86
86
96
FC
10
ENDCHAR
STARTCHAR 0052
ENCODING 82
SWIDTH 727 0
DWIDTH 8 0
BBX 6 8 1 0
BITMAP
FC
84
84
84
FC
88
88
84
ENDCHAR
STARTCHAR 0053
ENCODING 83
SWIDTH 727 0
DWIDTH 8 0
BBX 6 8 1 0
BITMAP
FC
84
80
80
FC
04
84
FC
ENDCHAR
STARTCHAR 0054
ENCODING 84
SWIDTH 636 0
DWIDTH 7 0
BBX 6 8 0 0
BITMAP
FC
10
10
10
10
10
10
10
ENDCHAR
STARTCHAR 0055
ENCODING 85
SWIDTH 818 0
DWIDTH 9 0
BBX 7 8 1 0
BITMAP
86
86
86
86
86
86
86
FC
ENDCHAR
STARTCHAR 0056
ENCODING 86
SWIDTH 727 0
DWIDTH 8 0
BBX 7 8 0 0
BITMAP
C2
42
46
24
24
38
18
18
ENDCHAR
STARTCHAR 0057
ENCODING 87
SWIDTH 1000 0
DWIDTH 11 0
BBX 10 8 0 0
BITMAP
C440
4C40
4A40
4A80
2A80
3280
3180
3100
ENDCHAR
STARTCHAR 0058
ENCODING 88
SWIDTH 727 0
DWIDTH 8 0
BBX 7 8 0 0
BITMAP
C6
64
28
18
18
2C
64
C2
ENDCHAR
STARTCHAR 0059
ENCODING 89
SWIDTH 636 0
DWIDTH 7 0
BBX 7 8 0 0
BITMAP
C2
44
2C
38
10
10
10
10
ENDCHAR
STARTCHAR 005A
ENCODING 90
SWIDTH 727 0
DWIDTH 8 0
BBX 6 8 1 0
BITMAP
FC
08
10
30
20
40
C0
FC
ENDCHAR
STARTCHAR 005B
ENCODING 91
SWIDTH 454 0
DWIDTH 5 0
BBX 3 10 1 -2
BITMAP
E0
80
80
80
80
80
80
80
80
E0
ENDCHAR
STARTCHAR 005C
ENCODING 92
SWIDTH 454 0
DWIDTH 5 0
BBX 4 9 0 -1
BITMAP
C0
40
40
20
20
20
10
10
10
ENDCHAR
STARTCHAR 005D
ENCODING 93
SWIDTH 454 0
DWIDTH 5 0
BBX 3 10 1 -2
BITMAP
E0
60
60
60
60
60
60
60
60
E0
ENDCHAR
STARTCHAR 005E
ENCODING 94
SWIDTH 545 0
DWIDTH 6 0
BBX 6 4 0 4
BITMAP
30
30
48
CC
ENDCHAR
STARTCHAR 005F
ENCODING 95
SWIDTH 636 0
DWIDTH 7 0
BBX 7 1 0 -3
BITMAP
FE
ENDCHAR
STARTCHAR 0060
ENCODING 96
SWIDTH 363 0
DWIDTH 4 0
BBX 2 1 1 7
BITMAP
C0
ENDCHAR
STARTCHAR 0061
ENCODING 97
SWIDTH 636 0
DWIDTH 7 0
BBX 5 6 1 0
BITMAP
F8
08
F8
88
88
F8
ENDCHAR
STARTCHAR 0062
ENCODING 98
SWIDTH 636 0
DWIDTH 7 0
BBX 5 8 1 0
BITMAP
80
80
F8
88
88
88
88
F8
ENDCHAR
STARTCHAR 0063
ENCODING 99
SWIDTH 636 0
DWIDTH 7 0
BBX 5 6 1 0
BITMAP
F8
88
80
80
88
F8
ENDCHAR
STARTCHAR 0064
ENCODING 100
SWIDTH 636 0
DWIDTH 7 0
BBX 5 8 1 0
BITMAP
08
08
F8
88
88
88
88
F8
ENDCHAR
STARTCHAR 0065
ENCODING 101
SWIDTH 636 0
DWIDTH 7 0
BBX 5 6 1 0
BITMAP
F8
88
88
F8
80
F8
ENDCHAR
STARTCHAR 0066
ENCODING 102
SWIDTH 454 0
DWIDTH 5 0
BBX 4 8 1 0
BITMAP
70
40
F0
40
40
40
40
40
ENDCHAR
STARTCHAR 0067
ENCODING 103
SWIDTH 636 0
DWIDTH 7 0
BBX 5 8 1 -2
BITMAP
F8
88
88
88
88
F8
08
78
ENDCHAR
STARTCHAR 0068
ENCODING 104
SWIDTH 636 0
DWIDTH 7 0
BBX 5 8 1 0
BITMAP
80
80
F8
88
88
88
88
88
ENDCHAR
STARTCHAR 0069
ENCODING 105
SWIDTH 272 0
DWIDTH 3 0
BBX 1 8 1 0
BITMAP
80
00
80
80
80
80
80
80
ENDCHAR
STARTCHAR 006A
ENCODING 106
SWIDTH 272 0
DWIDTH 3 0
BBX 2 10 0 -2
BITMAP
40
00
40
40
40
40
40
40
40
C0
ENDCHAR
STARTCHAR 006B
ENCODING 107
SWIDTH 545 0
DWIDTH 6 0
BBX 5 8 1 0
BITMAP
80
80
98
B0
C0
C0
A0
98
ENDCHAR
STARTCHAR 006C
ENCODING 108
SWIDTH 272 0
DWIDTH 3 0
BBX 1 8 1 0
BITMAP
80
80
80
80
80
80
80
80
ENDCHAR
STARTCHAR 006D
ENCODING 109
SWIDTH 909 0
DWIDTH 10 0
BBX 8 6 1 0
BITMAP
F7
99
91
91
91
91
ENDCHAR
STARTCHAR 006E
ENCODING 110
SWIDTH 636 0
DWIDTH 7 0
BBX 5 6 1 0
BITMAP
F8
88
88
88
88
88
ENDCHAR
STARTCHAR 006F
ENCODING 111
SWIDTH 636 0
DWIDTH 7 0
BBX 5 6 1 0
BITMAP
F8
88
88
88
88
F8
ENDCHAR
STARTCHAR 0070
ENCODING 112
SWIDTH 636 0
DWIDTH 7 0
BBX 5 8 1 -2
BITMAP
F8
88
88
88
88
F8
80
80
ENDCHAR
STARTCHAR 0071
ENCODING 113
SWIDTH 636 0
DWIDTH 7 0
BBX 5 8 1 -2
BITMAP
F8
88
88
88
88
F8
08
08
ENDCHAR
STARTCHAR 0072
ENCODING 114
SWIDTH 545 0
DWIDTH 6 0
BBX 4 6 1 0
BITMAP
F0
90
80
80
80
80
ENDCHAR
STARTCHAR 0073
ENCODING 115
SWIDTH 545 0
DWIDTH 6 0
BBX 4 6 1 0
BITMAP
F0
80
80
F0
10
F0
ENDCHAR
STARTCHAR 0074
ENCODING 116
SWIDTH 545 0
DWIDTH 6 0
BBX 4 7 1 0
BITMAP
40
F0
40
40
40
40
70
ENDCHAR
STARTCHAR 0075
ENCODING 117
SWIDTH 636 0
DWIDTH 7 0
BBX 5 6 1 0
BITMAP
88
88
88
88
88
F8
ENDCHAR
STARTCHAR 0076
ENCODING 118
SWIDTH 545 0
DWIDTH 6 0
BBX 6 6 0 0
BITMAP
C4
48
48
38
30
30
ENDCHAR
STARTCHAR 0077
ENCODING 119
SWIDTH 818 0
DWIDTH 9 0
BBX 9 6 0 0
BITMAP
8980
5900
5500
5500
3600
2200
ENDCHAR
STARTCHAR 0078
ENCODING 120
SWIDTH 545 0
DWIDTH 6 0
BBX 6 6 0 0
BITMAP
CC
28
30
30
68
CC
ENDCHAR
STARTCHAR 0079
ENCODING 121
SWIDTH 545 0
DWIDTH 6 0
BBX 6 8 0 -2
BITMAP
CC
48
48
30
30
20
20
60
ENDCHAR
STARTCHAR 007A
ENCODING 122
SWIDTH 545 0
DWIDTH 6 0
BBX 5 6 1 0
BITMAP
F8
30
20
40
C0
F8
ENDCHAR
STARTCHAR 007B
ENCODING 123
SWIDTH 363 0
DWIDTH 4 0
BBX 4 10 0 -2
BITMAP
30
40
40
40
40
C0
40
40
40
30
ENDCHAR
STARTCHAR 007C
ENCODING 124
SWIDTH 272 0
DWIDTH 3 0
BBX 1 10 1 -2
BITMAP
80
80
80
80
80
80
80
80
80
80
ENDCHAR
STARTCHAR 007D
ENCODING 125
SWIDTH 363 0
DWIDTH 4 0
BBX 3 10 1 -2
BITMAP
80
40
40
40
40
20
40
40
40
80
ENDCHAR
STARTCHAR 007E
ENCODING 126
SWIDTH 636 0
DWIDTH 7 0
BBX 5 1 1 3
BITMAP
F8
ENDCHAR
STARTCHAR 00A0
ENCODING 160
SWIDTH 272 0
DWIDTH 3 0
BBX 0 0 0 0
BITMAP
ENDCHAR
STARTCHAR 00A1
ENCODING 161
SWIDTH 272 0
DWIDTH 3 0
BBX 1 8 1 -2
BITMAP
80
80
00
80
80
80
80
80
ENDCHAR
STARTCHAR 00A2
ENCODING 162
SWIDTH 636 0
DWIDTH 7 0
BBX 5 8 1 -1
BITMAP
20
F8
88
80
80
88
F8
20
ENDCHAR
STARTCHAR 00A3
ENCODING 163
SWIDTH 727 0
DWIDTH 8 0
BBX 7 8 0 0
BITMAP
3E
22
20
20
F8
20
22
FE
ENDCHAR
STARTCHAR 00A4
ENCODING 164
SWIDTH 636 0
DWIDTH 7 0
BBX 5 6 1 1
BITMAP
88
F8
88
88
F8
88
ENDCHAR
STARTCHAR 00A5
ENCODING 165
SWIDTH 636 0
DWIDTH 7 0
BBX 7 8 0 0
BITMAP
C2
44
2C
38
7E
10
7E
10
ENDCHAR
STARTCHAR 00A6
ENCODING 166
SWIDTH 272 0
DWIDTH 3 0
BBX 1 10 1 -2
BITMAP
80
80
80
80
80
80
80
80
80
80
ENDCHAR
STARTCHAR 00A7
ENCODING 167
SWIDTH 727 0
DWIDTH 8 0
BBX 6 11 1 -3
BITMAP
F8
8C
80
80
F8
8C
8C
F8
0C
8C
F8
ENDCHAR
STARTCHAR 00A8
ENCODING 168
SWIDTH 454 0
DWIDTH 5 0
BBX 3 1 1 7
BITMAP
A0
ENDCHAR
STARTCHAR 00A9
ENCODING 169
SWIDTH 818 0
DWIDTH 9 0
BBX 7 8 1 0
BITMAP
3C
C6
BA
AA
AA
BA
C6
3C
ENDCHAR
STARTCHAR 00AA
ENCODING 170
SWIDTH 454 0
DWIDTH 5 0
BBX 3 6 1 2
BITMAP
E0
20
E0
A0
E0
E0
ENDCHAR
STARTCHAR 00AB
ENCODING 171
SWIDTH 545 0
DWIDTH 6 0
BBX 4 5 1 0
BITMAP
50
D0
A0
D0
50
ENDCHAR
STARTCHAR 00AC
ENCODING 172
SWIDTH 727 0
DWIDTH 8 0
BBX 6 3 1 1
BITMAP
FC
04
04
ENDCHAR
STARTCHAR 00AE
ENCODING 174
SWIDTH 818 0
DWIDTH 9 0
BBX 7 8 1 0
BITMAP
3C
C6
BA
AA
BA
AA
EE
3C
ENDCHAR
STARTCHAR 00AF
ENCODING 175
SWIDTH 454 0
DWIDTH 5 0
BBX 4 1 1 7
BITMAP
F0
ENDCHAR
STARTCHAR 00B0
ENCODING 176
SWIDTH 454 0
DWIDTH 5 0
BBX 3 4 1 4
BITMAP
E0
A0
A0
E0
ENDCHAR
STARTCHAR 00B1
ENCODING 177
SWIDTH 727 0
DWIDTH 8 0
BBX 6 6 1 0
BITMAP
20
20
FC
20
20
FC
ENDCHAR
STARTCHAR 00B2
ENCODING 178
SWIDTH 363 0
DWIDTH 4 0
BBX 3 4 1 4
BITMAP
E0
20
C0
E0
ENDCHAR
STARTCHAR 00B3
ENCODING 179
SWIDTH 454 0
DWIDTH 5 0
BBX 3 4 1 4
BITMAP
E0
A0
E0
E0
ENDCHAR
STARTCHAR 00B4
ENCODING 180
SWIDTH 363 0
DWIDTH 4 0
BBX 2 1 1 7
BITMAP
C0
ENDCHAR
STARTCHAR 00B5
ENCODING 181
SWIDTH 636 0
DWIDTH 7 0
BBX 5 8 1 -2
BITMAP
88
88
88
88
88
F8
80
80
ENDCHAR
STARTCHAR 00B6
ENCODING 182
SWIDTH 727 0
DWIDTH 8 0
BBX 6 10 1 -2
BITMAP
FC
E4
E4
E4
E4
24
24
24
24
24
ENDCHAR
STARTCHAR 00B7
ENCODING 183
SWIDTH 272 0
DWIDTH 3 0
BBX 1 2 1 3
BITMAP
80
80
ENDCHAR
STARTCHAR 00B8
ENCODING 184
SWIDTH 545 0
DWIDTH 6 0
BBX 3 4 1 -3
BITMAP
40
40
20
C0
ENDCHAR
STARTCHAR 00B9
ENCODING 185
SWIDTH 272 0
DWIDTH 3 0
BBX 2 4 0 4
BITMAP
C0
40
40
40
ENDCHAR
STARTCHAR 00BA
ENCODING 186
SWIDTH 454 0
DWIDTH 5 0
BBX 3 6 1 2
BITMAP
E0
A0
A0
A0
E0
E0
ENDCHAR
STARTCHAR 00BB
ENCODING 187
SWIDTH 545 0
DWIDTH 6 0
BBX 5 5 1 0
BITMAP
A0
90
58
90
A0
ENDCHAR
STARTCHAR 00BC
ENCODING 188
SWIDTH 818 0
DWIDTH 9 0
BBX 7 8 1 0
BITMAP
84
88
90
94
24
4C
4E
84
ENDCHAR
STARTCHAR 00BD
ENCODING 189
SWIDTH 818 0
DWIDTH 9 0
BBX 8 8 1 0
BITMAP
84
88
90
90
2F
42
44
8F
ENDCHAR
STARTCHAR 00BE
ENCODING 190
SWIDTH 909 0
DWIDTH 10 0
BBX 8 8 1 0
BITMAP
E3
A2
E4
E9
0B
15
27
61
ENDCHAR
STARTCHAR 00BF
ENCODING 191
SWIDTH 545 0
DWIDTH 6 0
BBX 5 8 1 -2
BITMAP
20
20
00
20
60
C0
98
F0
ENDCHAR
STARTCHAR 00C0
ENCODING 192
SWIDTH 727 0
DWIDTH 8 0
BBX 7 10 0 0
BITMAP
30
08
10
18
28
24
24
7C
42
C2
ENDCHAR
STARTCHAR 00C1
ENCODING 193
SWIDTH 727 0
DWIDTH 8 0
BBX 7 10 0 0
BITMAP
0C
10
10
18
28
24
24
7C
42
C2
ENDCHAR
STARTCHAR 00C2
ENCODING 194
SWIDTH 727 0
DWIDTH 8 0
BBX 7 10 0 0
BITMAP
18
24
10
18
28
24
24
7C
42
C2
ENDCHAR
STARTCHAR 00C3
ENCODING 195
SWIDTH 727 0
DWIDTH 8 0
BBX 7 10 0 0
BITMAP
3C
00
10
18
28
24
24
7C
42
C2
ENDCHAR
STARTCHAR 00C4
ENCODING 196
SWIDTH 727 0
DWIDTH 8 0
BBX 7 10 0 0
BITMAP
2C
00
10
18
28
24
24
7C
42
C2
ENDCHAR
STARTCHAR 00C5
ENCODING 197
SWIDTH 727 0
DWIDTH 8 0
BBX 7 10 0 0
BITMAP
18
28
18
18
28
24
24
7C
42
C2
ENDCHAR
STARTCHAR 00C6
ENCODING 198
SWIDTH 1181 0
DWIDTH 13 0
BBX 12 8 0 0
BITMAP
03F0
0600
0E00
1A00
13E0
3E00
4200
C3F0
ENDCHAR
STARTCHAR 00C7
ENCODING 199
SWIDTH 727 0
DWIDTH 8 0
BBX 6 11 1 -3
BITMAP
FC
84
80
80
80
80
84
FC
20
10
30
ENDCHAR
STARTCHAR 00C8
ENCODING 200
SWIDTH 636 0
DWIDTH 7 0
BBX 6 10 1 0
BITMAP
60
10
FC
80
80
80
F8
80
80
FC
ENDCHAR
STARTCHAR 00C9
ENCODING 201
SWIDTH 636 0
DWIDTH 7 0
BBX 6 10 1 0
BITMAP
30
00
FC
80
80
80
F8
80
80
FC
ENDCHAR
STARTCHAR 00CA
ENCODING 202
SWIDTH 636 0
DWIDTH 7 0
BBX 6 10 1 0
BITMAP
30
48
FC
80
80
80
F8
80
80
FC
ENDCHAR
STARTCHAR 00CB
ENCODING 203
SWIDTH 636 0
DWIDTH 7 0
BBX 6 10 1 0
BITMAP
58
00
FC
80
80
80
F8
80
80
FC
ENDCHAR
STARTCHAR 00CC
ENCODING 204
SWIDTH 272 0
DWIDTH 3 0
BBX 3 10 0 0
BITMAP
C0
20
40
40
40
40
40
40
40
40
ENDCHAR
STARTCHAR 00CD
ENCODING 205
SWIDTH 272 0
DWIDTH 3 0
BBX 2 10 1 0
BITMAP
C0
00
80
80
80
80
80
80
80
80
ENDCHAR
STARTCHAR 00CE
ENCODING 206
SWIDTH 272 0
DWIDTH 3 0
BBX 3 10 0 0
BITMAP
E0
00
40
40
40
40
40
40
40
40
ENDCHAR
STARTCHAR 00CF
ENCODING 207
SWIDTH 272 0
DWIDTH 3 0
BBX 3 10 0 0
BITMAP
A0
00
40
40
40
40
40
40
40
40
ENDCHAR
STARTCHAR 00D0
ENCODING 208
SWIDTH 818 0
DWIDTH 9 0
BBX 8 8 0 0
BITMAP
7E
43
41
41
F1
41
43
7E
ENDCHAR
STARTCHAR 00D1
ENCODING 209
SWIDTH 818 0
DWIDTH 9 0
BBX 7 10 1 0
BITMAP
7C
00
82
C2
E2
B2
92
8A
86
86
ENDCHAR
STARTCHAR 00D2
ENCODING 210
SWIDTH 818 0
DWIDTH 9 0
BBX 7 10 1 0
BITMAP
70
00
FC
86
86
86
86
86
86
FC
ENDCHAR
STARTCHAR 00D3
ENCODING 211
SWIDTH 818 0
DWIDTH 9 0
BBX 7 10 1 0
BITMAP
18
20
FC
86
86
86
86
86
86
FC
ENDCHAR
STARTCHAR 00D4
ENCODING 212
SWIDTH 818 0
DWIDTH 9 0
BBX 7 10 1 0
BITMAP
30
48
FC
86
86
86
86
86
86
FC
ENDCHAR
STARTCHAR 00D5
ENCODING 213
SWIDTH 818 0
DWIDTH 9 0
BBX 7 10 1 0
BITMAP
78
00
FC
86
86
86
86
86
86
FC
ENDCHAR
STARTCHAR 00D6
ENCODING 214
SWIDTH 818 0
DWIDTH 9 0
BBX 7 10 1 0
BITMAP
28
00
FC
86
86
86
86
86
86
FC
ENDCHAR
STARTCHAR 00D7
ENCODING 215
SWIDTH 636 0
DWIDTH 7 0
BBX 6 6 1 0
BITMAP
88
DC
70
70
D8
8C
ENDCHAR
STARTCHAR 00D8
ENCODING 216
SWIDTH 818 0
DWIDTH 9 0
BBX 7 10 1 -1
BITMAP
06
FC
8E
8E
96
A6
A6
C6
FC
80
ENDCHAR
STARTCHAR 00D9
ENCODING 217
SWIDTH 818 0
DWIDTH 9 0
BBX 7 10 1 0
BITMAP
60
10
86
86
86
86
86
86
86
FC
ENDCHAR
STARTCHAR 00DA
ENCODING 218
SWIDTH 818 0
DWIDTH 9 0
BBX 7 10 1 0
BITMAP
18
20
86
86
86
86
86
86
86
FC
ENDCHAR
STARTCHAR 00DB
ENCODING 219
SWIDTH 818 0
DWIDTH 9 0
BBX 7 10 1 0
BITMAP
30
48
86
86
86
86
86
86
86
FC
ENDCHAR
STARTCHAR 00DC
ENCODING 220
SWIDTH 818 0
DWIDTH 9 0
BBX 7 10 1 0
BITMAP
28
00
86
86
86
86
86
86
86
FC
ENDCHAR
STARTCHAR 00DD
ENCODING 221
SWIDTH 636 0
DWIDTH 7 0
BBX 7 10 0 0
BITMAP
0C
10
C2
44
24
38
18
10
10
10
ENDCHAR
STARTCHAR 00DE
ENCODING 222
SWIDTH 727 0
DWIDTH 8 0
BBX 6 8 1 0
BITMAP
80
80
FC
84
84
FC
80
80
ENDCHAR
STARTCHAR 00DF
ENCODING 223
SWIDTH 636 0
DWIDTH 7 0
BBX 6 8 1 0
BITMAP
F8
88
98
B0
A0
B8
84
B8
ENDCHAR
STARTCHAR 00E0
ENCODING 224
SWIDTH 636 0
DWIDTH 7 0
BBX 5 8 1 0
BITMAP
E0
00
F8
08
F8
88
88
F8
ENDCHAR
STARTCHAR 00E1
ENCODING 225
SWIDTH 636 0
DWIDTH 7 0
BBX 5 8 1 0
BITMAP
30
40
F8
08
F8
88
88
F8
ENDCHAR
STARTCHAR 00E2
ENCODING 226
SWIDTH 636 0
DWIDTH 7 0
BBX 5 8 1 0
BITMAP
70
00
F8
08
F8
88
88
F8
ENDCHAR
STARTCHAR 00E3
ENCODING 227
SWIDTH 636 0
DWIDTH 7 0
BBX 5 8 1 0
BITMAP
F8
00
F8
08
F8
88
88
F8
ENDCHAR
STARTCHAR 00E4
ENCODING 228
SWIDTH 636 0
DWIDTH 7 0
BBX 5 8 1 0
BITMAP
50
00
F8
08
F8
88
88
F8
ENDCHAR
STARTCHAR 00E5
ENCODING 229
SWIDTH 636 0
DWIDTH 7 0
BBX 5 10 1 0
BITMAP
60
50
50
60
F8
08
F8
88
88
F8
ENDCHAR
STARTCHAR 00E6
ENCODING 230
SWIDTH 909 0
DWIDTH 10 0
BBX 9 6 1 0
BITMAP
FF00
0980
F980
8F80
8800
FF80
ENDCHAR
STARTCHAR 00E7
ENCODING 231
SWIDTH 636 0
DWIDTH 7 0
BBX 5 9 1 -3
BITMAP
F8
88
80
80
88
F8
20
60
60
ENDCHAR
STARTCHAR 00E8
ENCODING 232
SWIDTH 636 0
DWIDTH 7 0
BBX 5 8 1 0
BITMAP
E0
00
F8
88
88
F8
80
F8
ENDCHAR
STARTCHAR 00E9
ENCODING 233
SWIDTH 636 0
DWIDTH 7 0
BBX 5 8 1 0
BITMAP
30
40
F8
88
88
F8
80
F8
ENDCHAR
STARTCHAR 00EA
ENCODING 234
SWIDTH 636 0
DWIDTH 7 0
BBX 5 8 1 0
BITMAP
60
90
F8
88
88
F8
80
F8
ENDCHAR
STARTCHAR 00EB
ENCODING 235
SWIDTH 636 0
DWIDTH 7 0
BBX 5 8 1 0
BITMAP
50
00
F8
88
88
F8
80
F8
ENDCHAR
STARTCHAR 00EC
ENCODING 236
SWIDTH 272 0
DWIDTH 3 0
BBX 2 8 0 0
BITMAP
C0
00
40
40
40
40
40
40
ENDCHAR
STARTCHAR 00ED
ENCODING 237
SWIDTH 272 0
DWIDTH 3 0
BBX 3 8 0 0
BITMAP
60
80
40
40
40
40
40
40
ENDCHAR
STARTCHAR 00EE
ENCODING 238
SWIDTH 272 0
DWIDTH 3 0
BBX 3 8 0 0
BITMAP
E0
00
40
40
40
40
40
40
ENDCHAR
STARTCHAR 00EF
ENCODING 239
SWIDTH 272 0
DWIDTH 3 0
BBX 3 8 0 0
BITMAP
A0
00
40
40
40
40
40
40
ENDCHAR
STARTCHAR 00F0
ENCODING 240
SWIDTH 636 0
DWIDTH 7 0
BBX 5 8 1 0
BITMAP
30
38
F8
88
88
88
88
F8
ENDCHAR
STARTCHAR 00F1
ENCODING 241
SWIDTH 636 0
DWIDTH 7 0
BBX 5 8 1 0
BITMAP
F8
00
F8
88
88
88
88
88
ENDCHAR
STARTCHAR 00F2
ENCODING 242
SWIDTH 636 0
DWIDTH 7 0
BBX 5 8 1 0
BITMAP
E0
00
F8
88
88
88
88
F8
ENDCHAR
STARTCHAR 00F3
ENCODING 243
SWIDTH 636 0
DWIDTH 7 0
BBX 5 8 1 0
BITMAP
30
40
F8
88
88
88
88
F8
ENDCHAR
STARTCHAR 00F4
ENCODING 244
SWIDTH 636 0
DWIDTH 7 0
BBX 5 8 1 0
BITMAP
60
90
F8
88
88
88
88
F8
ENDCHAR
STARTCHAR 00F5
ENCODING 245
SWIDTH 636 0
DWIDTH 7 0
BBX 5 8 1 0
BITMAP
F0
00
F8
88
88
88
88
F8
ENDCHAR
STARTCHAR 00F6
ENCODING 246
SWIDTH 636 0
DWIDTH 7 0
BBX 5 8 1 0
BITMAP
50
00
F8
88
88
88
88
F8
ENDCHAR
STARTCHAR 00F7
ENCODING 247
SWIDTH 727 0
DWIDTH 8 0
BBX 6 6 1 0
BITMAP
30
00
FC
00
00
30
ENDCHAR
STARTCHAR 00F8
ENCODING 248
SWIDTH 636 0
DWIDTH 7 0
BBX 5 8 1 -1
BITMAP
08
F8
98
A8
A8
C8
F8
80
ENDCHAR
STARTCHAR 00F9
ENCODING 249
SWIDTH 636 0
DWIDTH 7 0
BBX 5 8 1 0
BITMAP
E0
00
88
88
88
88
88
F8
ENDCHAR
STARTCHAR 00FA
ENCODING 250
SWIDTH 636 0
DWIDTH 7 0
BBX 5 8 1 0
BITMAP
30
40
88
88
88
88
88
F8
ENDCHAR
STARTCHAR 00FB
ENCODING 251
SWIDTH 636 0
DWIDTH 7 0
BBX 5 8 1 0
BITMAP
60
90
88
88
88
88
88
F8
ENDCHAR
STARTCHAR 00FC
ENCODING 252
SWIDTH 636 0
DWIDTH 7 0
BBX 5 8 1 0
BITMAP
50
00
88
88
88
88
88
F8
ENDCHAR
STARTCHAR 00FD
ENCODING 253
SWIDTH 545 0
DWIDTH 6 0
BBX 6 10 0 -2
BITMAP
18
20
84
48
48
30
30
20
20
60
ENDCHAR
STARTCHAR 00FE
ENCODING 254
SWIDTH 636 0
DWIDTH 7 0
BBX 5 10 1 -2
BITMAP
80
80
F8
88
88
88
88
F8
80
80
ENDCHAR
STARTCHAR 00FF
ENCODING 255
SWIDTH 545 0
DWIDTH 6 0
BBX 6 10 0 -2
BITMAP
48
00
CC
48
48
30
30
20
20
60
ENDCHAR
STARTCHAR 0127
ENCODING 295
SWIDTH 636 0
DWIDTH 7 0
BBX 6 8 0 0
BITMAP
40
F0
7C
44
44
44
44
44
ENDCHAR
STARTCHAR 0128
ENCODING 296
SWIDTH 272 0
DWIDTH 3 0
BBX 5 10 -1 0
BITMAP
78
80
20
20
20
20
20
20
20
20
ENDCHAR
STARTCHAR 0129
ENCODING 297
SWIDTH 272 0
DWIDTH 3 0
BBX 5 8 -1 0
BITMAP
78
80
20
20
20
20
20
20
ENDCHAR
STARTCHAR 0131
ENCODING 305
SWIDTH 272 0
DWIDTH 3 0
BBX 1 6 1 0
BITMAP
80
80
80
80
80
80
ENDCHAR
STARTCHAR 0132
ENCODING 306
SWIDTH 909 0
DWIDTH 10 0
BBX 8 8 1 0
BITMAP
81
81
81
81
81
81
91
9F
ENDCHAR
STARTCHAR 0133
ENCODING 307
SWIDTH 545 0
DWIDTH 6 0
BBX 4 10 1 -2
BITMAP
90
00
90
90
90
90
90
90
10
30
ENDCHAR
STARTCHAR 0134
ENCODING 308
SWIDTH 636 0
DWIDTH 7 0
BBX 6 10 1 0
BITMAP
1C
00
08
08
08
08
08
08
88
F8
ENDCHAR
STARTCHAR 0135
ENCODING 309
SWIDTH 272 0
DWIDTH 3 0
BBX 3 10 0 -2
BITMAP
E0
00
40
40
40
40
40
40
40
C0
ENDCHAR
STARTCHAR 0137
ENCODING 311
SWIDTH 545 0
DWIDTH 6 0
BBX 5 12 1 -4
BITMAP
80
80
98
A0
C0
E0
B0
98
00
60
60
40
ENDCHAR
STARTCHAR 0138
ENCODING 312
SWIDTH 545 0
DWIDTH 6 0
BBX 5 6 1 0
BITMAP
98
A0
C0
E0
B0
98
ENDCHAR
STARTCHAR 013F
ENCODING 319
SWIDTH 545 0
DWIDTH 6 0
BBX 5 8 1 0
BITMAP
80
80
80
B0
80
80
80
F8
ENDCHAR
STARTCHAR 0140
ENCODING 320
SWIDTH 454 0
DWIDTH 5 0
BBX 4 8 1 0
BITMAP
80
80
80
B0
80
80
80
80
ENDCHAR
STARTCHAR 0141
ENCODING 321
SWIDTH 636 0
DWIDTH 7 0
BBX 6 8 0 0
BITMAP
40
40
40
50
E0
40
40
7C
ENDCHAR
STARTCHAR 0142
ENCODING 322
SWIDTH 363 0
DWIDTH 4 0
BBX 3 8 0 0
BITMAP
40
40
40
60
C0
40
40
40
ENDCHAR
STARTCHAR 0143
ENCODING 323
SWIDTH 818 0
DWIDTH 9 0
BBX 7 10 1 0
BITMAP
18
00
82
C2
A2
B2
92
8A
86
86
ENDCHAR
STARTCHAR 0144
ENCODING 324
SWIDTH 636 0
DWIDTH 7 0
BBX 5 8 1 0
BITMAP
30
40
F8
88
88
88
88
88
ENDCHAR
STARTCHAR 0152
ENCODING 338
SWIDTH 1090 0
DWIDTH 12 0
BBX 11 8 1 0
BITMAP
FFE0
8400
8400
8400
87C0
8400
8400
FFE0
ENDCHAR
STARTCHAR 0153
ENCODING 339
SWIDTH 1000 0
DWIDTH 11 0
BBX 9 6 1 0
BITMAP
FF00
8880
8880
8F80
8800
FF80
ENDCHAR
STARTCHAR 0154
ENCODING 340
SWIDTH 727 0
DWIDTH 8 0
BBX 6 10 1 0
BITMAP
18
20
FC
84
84
84
FC
88
88
84
ENDCHAR
STARTCHAR 0156
ENCODING 342
SWIDTH 727 0
DWIDTH 8 0
BBX 6 12 1 -4
BITMAP
FC
84
84
84
FC
88
88
84
00
30
30
20
ENDCHAR
STARTCHAR 0157
ENCODING 343
SWIDTH 545 0
DWIDTH 6 0
BBX 4 10 1 -4
BITMAP
F0
90
80
80
80
80
00
80
80
80
ENDCHAR
STARTCHAR 0158
ENCODING 344
SWIDTH 727 0
DWIDTH 8 0
BBX 6 10 1 0
BITMAP
78
00
FC
84
84
84
FC
88
88
84
ENDCHAR
STARTCHAR 0159
ENCODING 345
SWIDTH 545 0
DWIDTH 6 0
BBX 4 8 1 0
BITMAP
F0
00
F0
90
80
80
80
80
ENDCHAR
STARTCHAR 0160
ENCODING 352
SWIDTH 727 0
DWIDTH 8 0
BBX 6 10 1 0
BITMAP
78
00
FC
84
80
80
FC
04
84
FC
ENDCHAR
STARTCHAR 0161
ENCODING 353
SWIDTH 545 0
DWIDTH 6 0
BBX 4 8 1 0
BITMAP
F0
00
F0
80
80
F0
10
F0
ENDCHAR
STARTCHAR 0178
ENCODING 376
SWIDTH 636 0
DWIDTH 7 0
BBX 7 10 0 0
BITMAP
28
00
C2
44
24
28
18
10
10
10
ENDCHAR
STARTCHAR 017D
ENCODING 381
SWIDTH 727 0
DWIDTH 8 0
BBX 6 10 1 0
BITMAP
58
20
FC
08
10
30
20
40
C0
FC
ENDCHAR
STARTCHAR 017E
ENCODING 382
SWIDTH 545 0
DWIDTH 6 0
BBX 5 8 1 0
BITMAP
F0
00
F8
30
20
40
C0
F8
ENDCHAR
STARTCHAR 0192
ENCODING 402
SWIDTH 454 0
DWIDTH 5 0
BBX 6 10 -1 -2
BITMAP
0C
10
10
3C
10
10
10
20
20
E0
ENDCHAR
STARTCHAR 02C6
ENCODING 710
SWIDTH 454 0
DWIDTH 5 0
BBX 4 1 1 7
BITMAP
F0
ENDCHAR
STARTCHAR 02C7
ENCODING 711
SWIDTH 454 0
DWIDTH 5 0
BBX 4 1 1 7
BITMAP
F0
ENDCHAR
STARTCHAR 02D8
ENCODING 728
SWIDTH 454 0
DWIDTH 5 0
BBX 4 2 1 7
BITMAP
B0
E0
ENDCHAR
STARTCHAR 02D9
ENCODING 729
SWIDTH 272 0
DWIDTH 3 0
BBX 1 1 1 7
BITMAP
80
ENDCHAR
STARTCHAR 02DA
ENCODING 730
SWIDTH 545 0
DWIDTH 6 0
BBX 3 4 1 6
BITMAP
60
A0
A0
60
ENDCHAR
STARTCHAR 02DB
ENCODING 731
SWIDTH 363 0
DWIDTH 4 0
BBX 2 3 1 -3
BITMAP
80
80
C0
ENDCHAR
STARTCHAR 02DC
ENCODING 732
SWIDTH 545 0
DWIDTH 6 0
BBX 4 1 1 7
BITMAP
F0
ENDCHAR
STARTCHAR 02DD
ENCODING 733
SWIDTH 545 0
DWIDTH 6 0
BBX 5 1 1 7
BITMAP
F8
ENDCHAR
STARTCHAR 0307
ENCODING 775
SWIDTH 272 0
DWIDTH 3 0
BBX 1 1 1 7
BITMAP
80
ENDCHAR
STARTCHAR 2013
ENCODING 8211
SWIDTH 818 0
DWIDTH 9 0
BBX 7 1 1 3
BITMAP
FE
ENDCHAR
STARTCHAR 2014
ENCODING 8212
SWIDTH 1000 0
DWIDTH 11 0
BBX 9 1 1 3
BITMAP
FF80
ENDCHAR
STARTCHAR 2018
ENCODING 8216
SWIDTH 272 0
DWIDTH 3 0
BBX 1 4 1 4
BITMAP
80
80
80
80
ENDCHAR
STARTCHAR 2019
ENCODING 8217
SWIDTH 272 0
DWIDTH 3 0
BBX 1 4 1 4
BITMAP
80
80
80
80
ENDCHAR
STARTCHAR 201A
ENCODING 8218
SWIDTH 272 0
DWIDTH 3 0
BBX 1 4 1 -2
BITMAP
80
80
80
80
ENDCHAR
STARTCHAR 201C
ENCODING 8220
SWIDTH 545 0
DWIDTH 6 0
BBX 4 4 1 4
BITMAP
B0
A0
B0
B0
ENDCHAR
STARTCHAR 201D
ENCODING 8221
SWIDTH 545 0
DWIDTH 6 0
BBX 4 4 1 4
BITMAP
B0
B0
A0
A0
ENDCHAR
STARTCHAR 201E
ENCODING 8222
SWIDTH 545 0
DWIDTH 6 0
BBX 4 4 1 -2
BITMAP
B0
B0
A0
A0
ENDCHAR
STARTCHAR 2020
ENCODING 8224
SWIDTH 636 0
DWIDTH 7 0
BBX 5 10 1 -2
BITMAP
20
20
20
F8
20
20
20
20
20
20
ENDCHAR
STARTCHAR 2021
ENCODING 8225
SWIDTH 636 0
DWIDTH 7 0
BBX 5 10 1 -2
BITMAP
20
20
20
F8
20
20
20
F8
20
20
ENDCHAR
STARTCHAR 2022
ENCODING 8226
SWIDTH 454 0
DWIDTH 5 0
BBX 3 4 1 2
BITMAP
E0
E0
E0
E0
ENDCHAR
STARTCHAR 2026
ENCODING 8230
SWIDTH 818 0
DWIDTH 9 0
BBX 7 2 1 0
BITMAP
96
96
ENDCHAR
STARTCHAR 2039
ENCODING 8249
SWIDTH 363 0
DWIDTH 4 0
BBX 2 5 1 0
BITMAP
40
C0
80
C0
40
ENDCHAR
STARTCHAR 203A
ENCODING 8250
SWIDTH 363 0
DWIDTH 4 0
BBX 2 5 1 0
BITMAP
80
80
40
80
80
ENDCHAR
STARTCHAR 2044
ENCODING 8260
SWIDTH 545 0
DWIDTH 6 0
BBX 6 8 0 0
BITMAP
04
08
08
10
20
20
40
80
ENDCHAR
STARTCHAR 20AC
ENCODING 8364
SWIDTH 818 0
DWIDTH 9 0
BBX 8 8 0 0
BITMAP
3F
61
60
FC
F8
60
61
3F
ENDCHAR
STARTCHAR 2122
ENCODING 8482
SWIDTH 909 0
DWIDTH 10 0
BBX 8 4 1 4
BITMAP
E9
4B
57
55
ENDCHAR
STARTCHAR 2212
ENCODING 8722
SWIDTH 727 0
DWIDTH 8 0
BBX 6 1 1 3
BITMAP
FC
ENDCHAR
STARTCHAR F6BE
ENCODING 63166
SWIDTH 272 0
DWIDTH 3 0
BBX 2 8 0 -2
BITMAP
40
40
40
40
40
40
40
C0
ENDCHAR
STARTCHAR F6C3
ENCODING 63171
SWIDTH 272 0
DWIDTH 3 0
BBX 1 3 1 -4
BITMAP
80
80
80
ENDCHAR
ENDFONT
